<?xml version="1.0" encoding="utf-8"?>
<!-- Generator: Adobe Illustrator 18.1.1, SVG Export Plug-In . SVG Version: 6.00 Build 0)  -->
<svg version="1.0" xmlns="http://www.w3.org/2000/svg" xmlns:xlink="http://www.w3.org/1999/xlink" x="0px" y="0px"
	 viewBox="0 0 243 300" enable-background="new 0 0 243 300" xml:space="preserve">
<g id="Layer_1" display="none">
	
		<image display="inline" overflow="visible" width="512" height="512" xlink:href="homelessdata/10313702_10100821438587677_2251949839024341146_n.jpg"  transform="matrix(1.4878 0 0 1.4878 -289.2653 15.9592)">
	</image>
</g>
<g id="Layer_2">
	<path fill="none" stroke="#000000" stroke-miterlimit="10" d="M29.3,106c0,0-7.7-4.3-5.7,4s5,11,1.3,22.3c-1,5.3-3.3,15.7-2.7,20.7
		c1,3,1.7,2.3,1.7,8.7c0,6.3-1.3,7-1.7,25.3c0.7,8.7,1.3,24.3,1.7,30.7c0.3,6.3,2.3,14,7.7,20.3s16.3,14.3,18.7,19.7
		c2.3,5.3,7,25,20,28.7c13,3.7,26.3,13,33,11.7c6.7-1.3,16.7,2.7,27.3-6c10.7-8.7,17.3-19.3,27-25c9.7-5.7,22.3-17,27-23
		c3.7-4.8,12.7-28,18.3-37.3c1.4-2.4,0,10.5,6,0.7c2.7-4.5,8.3-16.3,13.3-22.3s5.7-14.7,6-21.3c0.3-6.7,5.7-16.3,7-19.7
		c1.3-3.3-2.7-6.7-7-5c-4.3,1.7-9.1,4.5-9.1,4.5c0.8-10.8,14.8-63-2.8-86.5S172,10,162,7.5c-8-3.5-82.5-10-100,15S36.5,46,31,99.5"
		/>
	<path fill="none" stroke="#000000" stroke-width="0.75" stroke-miterlimit="10" d="M47.5,140.8c0,0,4-0.8,6.8-2.2s18-5.8,24.8,3.2
		c3,3.8,6,6.2,7.8,7.2s5.2,3.8,2.8,4.2s-6.5-2-8.5-2s-14.8,0-20.5-0.8c-3-1.5-7.2-6-9.2-6.8"/>
	<path fill="none" stroke="#000000" stroke-width="0.75" stroke-miterlimit="10" d="M132.8,161c0,0-6-1.2-0.2-3.2s6.5-2,11.2-4
		s19.2-2.2,24.2,1s4.2,5.8,8.5,6s-5.2,2-8.5,4.2s-11.5,3.8-23-0.8c-3.5-0.8-7.8-2-9.5-2.2"/>
	<path fill="none" stroke="#000000" stroke-width="0.75" stroke-miterlimit="10" d="M131.5,153c0,0,6.8-3.5,10-5.8s11.8-5,18.8-3.2
		s12.8,3.8,14.8,8.2s1.8,5.5,1.8,5.5"/>
	<path fill="none" stroke="#000000" stroke-width="0.75" stroke-miterlimit="10" d="M47.2,137c3.2-3.2,8-8,12-8.2s12.8,0.5,16,2.5
		s6.5,4,6.5,4s4.5,9.8,10.2,12"/>
	<path fill="none" stroke="#000000" stroke-width="0.75" stroke-miterlimit="10" d="M85.2,180c0,0-4.2-5.5-8.8,0.5S69,189.8,73,193
		s9.8,3.2,12.8,8s5.2,9.2,11.2,10.2s11.8-2,15.5-3.5s5.8-1.8,9-1.5s10.2-0.2,12-0.8s4.5-2.5,3.2-7.2s-0.8-11-6.5-12
		s-9.8-0.8-9.8-0.8s-8.8-15.5-3.5-29.8s17-24.8,17-24.8"/>
	<path fill="none" stroke="#000000" stroke-width="0.75" stroke-miterlimit="10" d="M98.5,166c0,0-0.5,3.5-4,9.5s-10,13.2-5.8,22.8"
		/>
	<path fill="none" stroke="#000000" stroke-width="0.75" stroke-miterlimit="10" d="M29,112.5c0,0,3.2,11.5,2.5,17.8
		s-1.8,9.2-2.5,13.8s-1.5,7.5-2.5,10s-2,6.8-2,6.8"/>
	<path fill="none" stroke="#000000" stroke-width="0.75" stroke-miterlimit="10" d="M57.3,219.3c0,0,2.3-5,11-2.3s11.7,2.3,13.3,2.7
		c1.7,0.3,10,10,19.3,8c4.7-0.3,8-0.3,15.3,0.7c7.3,1,21.3,1.7,25,1.3c3.7-0.3,7.3,0,2.7,3s-16.3,8-22.7,11.7c-6.3,3.7-14.7,6-23,4
		S79,241,71.7,234c-7.3-7-12.3-12.3-13-12.7"/>
	<path fill="none" stroke="#000000" stroke-width="0.75" stroke-miterlimit="10" d="M59.7,225.7c0,0,4.3,3.7,6.3,11.7s-1.3,16,8,21
		c9.3,5,14.7,5.7,18.3,5.7c4.7,1,20,4.7,24,1.7s13-21,16.3-23.3c3.3-2.3,9-6.7,12-7.7"/>
	<path fill="none" stroke="#000000" stroke-width="0.75" stroke-miterlimit="10" d="M231.8,142.8c0,0,2.5,0.8-2.2,3.5
		s-10.8,3.5-13.2,9.8s-2.5,6.2-2.5,6.2"/>
	<path fill="none" stroke="#000000" stroke-width="0.75" stroke-miterlimit="10" d="M224.5,149c0,0,0.2-1.5-0.5,8.2
		s-0.2,8.8-1.5,15.5s-0.2,7.8-3.5,11.2s-3.8,3-6.2,7.2s-7,11.8-5.2,3.2"/>
	<path fill="none" stroke="#000000" stroke-width="0.75" stroke-miterlimit="10" d="M212.5,144c-0.8,1.2-2.2-2.8-2.2,10.2
		s0.5,9.5-0.2,19.2s-0.8,16.5-6.8,30.8"/>
	<path fill="none" stroke="#000000" stroke-miterlimit="10" d="M211,134c-1.5-10-5.5-19.5-11-26.5c0,0,0-29,1.5-37.5c0,0-3-1-8.5-1
		s-15-3.5-24.5-8.5s-20.5-15.5-46-19S59,49,57.5,48L51,68c0,0-10,7-16.5,49.5"/>
	<path fill="none" stroke="#000000" stroke-miterlimit="10" d="M64.3,136.6c-1.7,0.9-2.6,2.9-2.9,4.8c-0.4,2.9,0.5,6.3,3.1,7.8
		c1.8,1.1,4,1.1,6.1,0.8c0.9-0.1,1.9-0.3,2.6-0.8c0.9-0.7,1.4-1.8,1.8-2.8c0.9-2.2,1.8-4.5,1.3-6.8c-0.1-0.2-0.2-0.5-0.4-0.6
		c-0.2-0.1-0.5,0.2-0.4,0.4"/>
	<path fill="none" stroke="#000000" stroke-miterlimit="10" d="M150.1,152.6c-0.8,1.6-1.6,3.4-1.8,5.2c-0.2,1.8,0.2,3.8,1.4,5.2
		c1.3,1.5,3.4,2,5.4,2.3c0.9,0.1,1.8,0.2,2.7,0c1.5-0.4,2.5-1.7,3.2-3.1c0.9-1.8,1.4-3.8,1.3-5.9c0-1.5-0.6-3.4-2.2-3.7"/>
	<path fill="none" stroke="#000000" stroke-miterlimit="10" d="M44.7,119c-0.3,0.5-0.4,1.1-0.3,1.6c1.2-3,3.1-5.8,5.4-8.1
		c0.1,1.9-0.4,3.8-1.4,5.4c0.6-2.2,1.7-4.3,3.2-6.1c-1.2,1.4-2.4,2.8-3.6,4.1c0.7-3,2.7-5.6,5.4-7c-0.3,2.4-1.1,4.7-2.2,6.8
		c0.9-2.5,2.2-4.8,4-6.8c-0.2,2.5-0.9,5-1.9,7.3c0.7-3.6,3.4-6.7,6.9-8c-0.8,2.6-2.1,5-3.9,6.9c1.2-2.4,2.8-4.7,4.6-6.7
		c0,1.3,0,2.5,0.1,3.8c-0.2-2.2,0-4.3,0.4-6.5c2.2,0.8,3.7,3.2,3.3,5.5c-0.7-1.6-1-3.4-1.1-5.1c2.6,1.8,5,4.1,6.9,6.7
		c-2.7-1.3-5.6-2.2-8.6-2.6c1.2-1.3,2.9-2.1,4.7-2.2c0.6,1.2,1.1,2.6,1.4,4c-0.4-1.7-0.5-3.4-0.1-5.1c2.4,2.7,4,6,4.5,9.5
		c-1-2-1.8-4-2.3-6.2c-0.2-0.7-0.1-1.6,0.6-1.7c0.5,0,0.8,0.4,1,0.8c1.5,2.7,3.1,5.4,4.6,8.1c-0.8-2.4-0.8-5.1-0.2-7.6
		c1.4,3.6,3.1,7.1,4.9,10.6c-0.9-2.1-1.3-4.4-1.3-6.7c0-0.4,0-0.9,0.4-1.1c0.6-0.4,1.3,0.5,1.5,1.2c1,2.9,2,5.8,3,8.7
		c-0.7-2.4-1-5-0.8-7.6c1.1,3.1,2.1,6.2,3.2,9.2c-0.2-2-0.4-4-0.6-6c0.9,2.3,1.8,4.6,2.7,7c-0.1-1.4-0.2-2.9-0.3-4.3
		c0.3,2.5,1.5,4.9,3.3,6.6c0-3-0.9-6.1-2.5-8.7c1.4,2.5,2.5,5.2,3.3,8c0.4-0.4,0.8-0.8,1.2-1.2c0.1,1.2,0.1,2.4,0.2,3.6
		c0.9-0.6,1.5-1.5,1.6-2.5c0,0.5,0,1,0,1.5c0.1-3.5-1.6-7-4.4-9c0.4,1.9,0.8,3.7,1.2,5.6c-2.1-3-4-6-5.8-9.2c1.1,3.2,1.8,6.6,2.2,10
		c-3.4-3.6-6.2-7.8-8.1-12.3c1.5,2.9,2.5,6.1,2.9,9.3c-3-3.7-5.7-7.6-8-11.8c1.7,3.5,3.5,7,5.2,10.4c-1.4-4.6-3.5-8.9-6.3-12.8
		c0.9,3.1,1.7,6.1,2.6,9.2c-2.2-3.9-4.8-7.5-7.8-10.8c0.9,3.1,1.8,6.3,2.7,9.4c-2.6-3.7-5.6-7.1-9-10.2c1.7,2.6,2.7,5.5,3.2,8.6
		c-2.3-2.7-4.6-5.3-6.8-8c-0.1,2.3,0.5,4.6,1.8,6.6c-1.1-0.7-2.1-1.6-2.9-2.6"/>
	<path fill="none" stroke="#000000" stroke-miterlimit="10" d="M135.6,132.3c-0.6,0.3-0.6-1-0.1-1.5c2.3-2.3,5-4.1,7.9-5.4
		c-1.9,2.1-3.8,4.3-5.6,6.4c2.5-4,6.8-6.8,11.4-7.4c-3.1,2.6-6.5,4.8-10.1,6.5c2.5-1.9,5.3-3.3,8.4-4.1c-1,1.2-2.1,2.5-3.1,3.7
		c1.9-1.9,4.1-3.6,6.5-4.8c-1.6,2-3.6,3.7-5.8,5c1.3-2.5,3.7-4.2,6.5-4.7c-1.3,1.8-2.9,3.4-4.7,4.6c2.3-1.6,4.6-3.3,6.9-4.9
		c-1.4,1.4-2.8,2.8-4.2,4.3c1.9-2.1,4.2-3.7,6.8-4.8c-1.4,1.5-2.9,3-4.5,4.3c2.1-1.8,4.3-3.4,6.7-4.8c-1.8,2.1-3.6,4.1-5.4,6.2
		c2-2.6,4.8-4.5,7.9-5.6c-1.7,2.2-3.9,4.1-6.4,5.5c3.1-1.9,6.4-3.3,9.8-4.2c-2.1,1.8-4.5,3.2-7,4.4c3.2-2.4,7-4.1,11-5
		c-2.2,1.4-4.4,2.7-6.6,4.1c1.9-2.3,4.7-3.8,7.6-4.2c-2.1,1.6-4.2,3.2-6.2,4.9c2.5-1.7,5.1-3.1,7.8-4.3c-1.6,1.7-3.4,3.3-5.2,4.6
		c2.1-1.2,4.2-2.4,6.3-3.7c-1.6,1.7-3.3,3.3-5.2,4.8c2.1-1.8,4.5-3.2,7.1-4.2c-0.7,1.5-2.1,2.8-3.8,3.3c1.6-1.3,3.2-2.6,4.9-3.7
		c-1,1.5-1.5,3.3-1.3,5.1c-0.4-1.7,0-3.5,1.1-4.8c0.3,1.6,0.6,3.2,0.9,4.8c0-1.5,0.1-3.1,0.1-4.6c0.9,2.2,1.7,4.4,2.3,6.7
		c-0.4-1.7-0.8-3.3-1.2-5c1.7,1.8,2.9,4,3.4,6.4c-1.3-1.8-2-3.9-2.2-6.1c1.9,1,3.1,3.2,2.9,5.3c-1.6-1.4-2.6-3.5-2.6-5.6
		c2.4,2.4,3.6,5.9,3.3,9.3c0.1-1.7,0.2-3.4,0.2-5.1c1.2,2.1,1.9,4.4,2.2,6.8c0-2.2,0-4.5,0-6.7c0.4,1.4,0.9,2.8,1.3,4.2
		c0.1-0.5,0.1-1.1,0.2-1.6c0.1,1.8,0.5,3.6,1.1,5.4c-0.4-1.5-0.7-3-1.1-4.5c0.5,1.7,0.9,3.4,1.4,5.1"/>
	<path fill="none" stroke="#000000" stroke-miterlimit="10" d="M118.8,188.3c-0.3,4.1-1.1,8.2-2.4,12"/>
	<path fill="none" stroke="#000000" stroke-miterlimit="10" d="M92.3,214.7c-0.3,0.6-0.7,1.3-1,1.9c-0.2-1.7-0.4-3.5-0.6-5.2
		c-0.4,1.4-0.5,2.8-0.3,4.2c-0.2-2-0.3-3.9-0.5-5.9c0.1,2-0.4,4.1-1.6,5.8c-0.2-2.5-0.8-5-1.8-7.3c0,2.1-0.5,4.1-1.6,5.9
		c-1.1-1.9-1.8-4-2.2-6.1c0.3,2.1,0.1,4.3-0.6,6.3c-0.7-2.1-0.5-4.4,0.5-6.4c-0.1,2.2,0,4.5,0.4,6.7c0.4-1.9,0.8-3.8,1.3-5.7
		c0,1.7,0.4,3.5,1.1,5.1c1.2-1.6,2-3.4,2.3-5.4c-0.8,0.9-0.8,2.2-1.1,3.4c-0.3,1.2-1.3,2.4-2.5,2c-0.7-0.2-1.1-1-1.4-1.7
		c-0.7-1.8-1.5-3.7-2.2-5.5c0,2.4-0.9,4.8-2.5,6.5c-1.1-1.5-1.9-3.3-2.4-5.2c-0.6,0.9-0.8,2-0.7,3.1c-1-1.3-2-2.7-3-4
		c0.4,1.2,0.8,2.4,1.2,3.6c-2.1-1.5-3.9-3.3-5.6-5.3c0.7,1.3,1.5,2.5,2.2,3.8c-1.2-1.1-2.4-2.2-3.6-3.3c0.9,1.7,1.4,3.6,1.2,5.5
		c-1.8-0.8-3.2-2.6-3.6-4.6c0.5,1.8,1.1,3.5,1.6,5.3c-0.1-2,0.7-4,2.2-5.3c0.6,1.7,0.8,3.6,0.6,5.4c0.3-1.8,0.9-3.5,1.6-5.2
		c0.4,1.8,0.8,3.5,1.1,5.3c0.8-1.7,1.7-3.4,2.5-5.1c0.1,1.9,0.7,3.8,1.7,5.4c0.8-1.5,1.6-3,2.3-4.5c-0.1,1.8,0.6,3.7,1.7,5.1
		c0.4-2,0.8-4,1.2-6c-0.7,1.8-1.4,3.6-2.1,5.3c-1.7-2.2-3.6-4.3-5.7-6.2c-0.9,1.5-1.2,3.3-0.9,5.1c-2.1-2.1-4.5-3.8-7.2-5
		c-0.3,1.9-0.6,3.7-0.9,5.6c-1.2-1.5-2.5-2.9-3.7-4.4c0,1.6,0.3,3.2,0.9,4.7c-1.7-1.5-3.3-3-5-4.5c-0.1,1.9,0.3,3.7,1.2,5.4
		c-1.4-1.4-2.6-3-3.5-4.8c-0.1,1.5-0.2,2.9-0.3,4.4c-1.4-0.9-2.5-2.4-2.8-4c0.1,1.7,0.3,3.5,0.4,5.2c-1.2-1.6-2.1-3.5-2.5-5.5
		c0.5,2.5,1.1,5,1.6,7.5c-0.6-2.1-1.3-4.3-1.9-6.4c0.8,2.9,1.3,5.9,1.7,8.9c-1.2-2.1-1.8-4.6-1.7-7c0.1,3.6,0.2,7.1,0.4,10.7
		c-0.2-2.2-0.5-4.4-0.7-6.6c0.2,2.8,0.6,5.5,1.3,8.2c-0.1-1.8-0.2-3.6-0.3-5.5c0.1,2.5,0.2,5,0.3,7.5c0-1.7,0-3.4,0-5
		c0.4,2.7,0.8,5.5,1.2,8.2c-0.5-0.8-0.7-1.8-0.5-2.7c0.1,2.2,0.2,4.4,0.3,6.6c-0.1-1-0.3-1.9-0.4-2.9c0.3,2.7,0.7,5.4,1,8.1
		c-0.5-1.3-0.9-2.7-1.4-4c0.4,1.8,0.1,3.9-1,5.4c0.2-1,0.5-1.9,0.7-2.9c-0.6,2.5-1.5,5-2.9,7.2c1-1.5,1.9-3,2.9-4.6
		c-0.9,2.4-1.7,4.8-2.6,7.2c1-0.9,1.9-2,2.5-3.2c-0.6,0.7-1,1.7-0.9,2.7c0.5-1.2,1-2.5,1.6-3.7c-0.7,2.7-1.3,5.4-2,8
		c0.9-1.6,1.8-3.3,2.7-4.9c-1,3.1-1.8,6.3-2.3,9.5c1.3-2.5,2.6-5,4-7.5c-0.7,2.8-1.5,5.5-2.2,8.3c1.1-2.2,2.2-4.5,3.3-6.7
		c-0.8,3.6-1.7,7.1-2.7,10.7c1-2,2-4,3-6c-0.6,2.8-1.2,5.7-1.7,8.5c1.2-1.9,2.3-3.9,3.1-6c-0.5,3.5-1,7-1.5,10.5
		c1.1-2.6,2.2-5.2,3.3-7.9c-0.8,3.7-1.6,7.4-2.4,11.1c0.7-2.7,1.4-5.5,2.2-8.2c-0.7,3.1-1.2,6.2-1.4,9.3c0.5-2,1-3.9,1.5-5.9
		c-0.1,3-0.6,5.9-1.4,8.7c0.9-2.2,1.8-4.4,2.8-6.6c-0.9,3.5-1.6,7-2.2,10.6c1.5-3.2,3-6.5,4.5-9.7c-0.6,3.9-1.6,7.8-2.7,11.6
		c1.5-3.3,3-6.6,4.5-9.9c-0.6,3.3-1.3,6.6-1.9,9.9c1.1-2.7,2.2-5.4,3.3-8.1c-0.3,3.9-0.9,7.7-1.6,11.5c0.9-3.1,2.1-6,3.4-8.9
		c-0.6,3.4-1.2,6.8-1.8,10.2c1-2.7,2.1-5.4,3.1-8.1c0.1,2.9-0.2,5.9-0.8,8.7c0.8-3.2,1.9-6.4,3.3-9.4c-0.3,3.2-0.6,6.5-0.9,9.7
		c1-2.8,2-5.5,3-8.3c-0.4,3.1-0.7,6.2-1.1,9.4c0.7-2.9,1.5-5.8,2.2-8.8c0,3.2,0,6.3,0,9.5c1.1-3.2,2-6.4,2.5-9.7
		c-0.1,3.9-0.2,7.8-0.4,11.7c0.5-2.6,1-5.2,1.5-7.7c0.1,2.7,0.2,5.4,0.3,8.1c0.7-2.7,1.4-5.4,2.1-8.1c0,3.1,0.4,6.2,1.4,9.2
		c0.2-3.3,0.8-6.5,1.8-9.7c0.1,3.5,0.5,7,1.2,10.4c0.4-2.2,0.9-4.4,1.3-6.5c0.4,2.3,0.9,4.5,1.3,6.8c0.5-2.2,0.7-4.5,0.4-6.8
		c0.3,3.4,1.3,6.7,2.9,9.7c0.4-2.8,0.5-5.6,0.4-8.4c0.1,2.6,0.6,5.2,1.4,7.7c0.1-2.7,0.3-5.4,0.4-8.1c0.2,2.8,0.4,5.7,0.5,8.5
		c0.1-2.1,0.3-4.3,0.4-6.4c0.2,2,0.5,4,0.7,6c0.3-1.7,0.5-3.4,0.8-5.1c0.1,3,0.6,6,1.5,8.9c0.2-3.3,0.4-6.6,0.6-9.9
		c-0.1,3.7,0.5,7.5,1.7,11c0.3-3.6,0.4-7.3,0.2-11c0.3,3.2,0.8,6.4,1.7,9.5c0-3.2-0.4-6.4-1.2-9.6c0.4,3,1.2,5.9,2.5,8.6
		c0-2.7,0-5.4,0-8.1c0.3,3.4,1.1,6.7,2.2,9.9c0.2-3.3,0.1-6.7-0.5-10c0.3,3.6,0.9,7.1,1.7,10.6c0.3-4.1,0.3-8.3,0-12.5
		c-0.1,4,0.5,7.9,1.8,11.7c0.1-3.1-0.2-6.2-0.9-9.2c0.3,3.4,1.3,6.7,3.1,9.6c-0.6-3.4-1.3-6.7-1.9-10.1c0.6,3.7,2,7.3,3.9,10.6
		c0-4.4-0.5-8.9-1.5-13.2c0.3,4.2,1.5,8.3,3.4,12c-0.5-3.4-1-6.7-1.5-10.1c0.2,3.6,1.4,7.1,3.4,10c0.4-3.6,0.2-7.2-0.8-10.6
		c0.2,3.2,1.2,6.4,2.7,9.2c-0.3-3.4-0.6-6.9-1-10.3c0.9,3.3,2.1,6.6,3.6,9.7c0.1-3.2,0-6.4-0.4-9.5c0.2,3.5,1.1,7,2.6,10.1
		c0-2.6-0.4-5.2-1.1-7.7c0.2,2.6,0.8,5.1,1.8,7.5c-0.4-3.3-0.9-6.7-1.3-10c0.4,3.3,1.6,6.6,3.4,9.4c-0.2-2.7-0.5-5.4-0.7-8.1
		c0.4,2.8,1.2,5.6,2.5,8.1c0.2-2.1,0-4.2-0.7-6.2c0.1,2,0.6,3.9,1.6,5.7c-0.1-1.6-0.4-3.3-1-4.8c0.4,1.9,1,3.7,1.8,5.4
		c-0.5-1.8-0.9-3.6-1.4-5.4c0.2,1.2,0.7,2.4,1.3,3.4c-0.7-2.4-1.7-4.8-2.9-7c0.4,1.7,0.7,3.4,1.1,5.1c-2.7-2.7-5-5.8-6.8-9.2
		c1.9,4.2,3.5,8.5,4.8,13c-3.3-2.1-5.8-5.4-7.1-9.1c0.2,3.9,0.8,7.7,1.6,11.5c-1.2-4-2.2-8-2.9-12.1c0.3,2.8,0.5,5.5,0.8,8.3
		c-1.1-1.6-0.4-4.1,1.3-4.9c0.8,1.4,1.7,2.8,2.5,4.2c0.7-2.4,1.1-4.8,1.1-7.3c0.8,2.9,1.8,5.8,3.1,8.5c-0.7-3.3-1.4-6.6-2.1-9.9
		c0.5,2.7,1.4,5.4,2.8,7.8c-0.9-2.5-1.8-5.1-2.7-7.6c1.2,1.3,2.2,2.7,3.1,4.2c-1-2.7-2.1-5.4-3.1-8.1c1.1,3.6,2.7,7,4.8,10.2
		c-1-3.7-2.1-7.3-3.1-11c0.6,3.7,2.3,7.2,4.7,10.1c-1.1-3.8-1.7-7.7-1.8-11.7c1.7,3.6,3.4,7.1,5.1,10.7c-0.8-3.7-1.5-7.4-2.3-11.1
		c1,3.4,2.5,6.7,4.3,9.9c-0.7-3.6-1.5-7.3-2.2-10.9c0.9,3.7,2.4,7.2,4.4,10.3c-0.5-4.1-1-8.2-1.5-12.3c0.9,3.8,2.3,7.4,4.2,10.8
		c-0.3-2.3-0.9-4.5-1.7-6.7c1,2.3,2.1,4.6,3.1,6.9c-0.7-3-1.5-5.9-2.6-8.7c0.8,2.9,2,5.8,3.6,8.3c-0.2-2.5-0.7-5-1.3-7.4
		c1,2.5,2.4,4.8,4,7c-1-2.5-1.9-4.9-2.9-7.4c1.1,1.9,2.2,3.8,3.2,5.7c-1.7-4.2-3.8-8.2-6.2-11.9c0.9,2.1,1.9,4.2,2.1,6.5
		c0.2,2.3-0.4,4.8-2.1,6.3c-0.4-1.7-1.5-3.3-3-4.2c0,3.7-0.2,7.3-0.8,11c-1.1-3-2.3-5.9-3.4-8.9c-0.8,3.3-0.8,6.7-0.1,10
		c-0.7-3.6-1.5-7.2-2.2-10.9c0.1,3.4,0.7,6.8,1.6,10c0.4-2.7,0.4-5.4,0.1-8c-0.3,3-0.2,5.9,0.3,8.9c-0.2-3.7,0.4-7.4,1.9-10.8
		c0.8,1.6,1.7,3.2,2.5,4.8c0.2-3.3,0.3-6.6,0.5-10c1.3,2.5,2.6,5,3.8,7.6c-0.7-3.2-1.4-6.5-2.1-9.7c0.4,2.5,1.5,5,3,7
		c-0.6-2.9-1.5-5.7-2.7-8.4c0.6,2.1,1.4,4.1,2.5,6c-0.6-2.9-1.2-5.8-1.8-8.8c1,2.5,1.9,5.1,2.9,7.6c-0.5-3.9-1-7.7-1.6-11.6
		c0.7,4.1,1.8,8.1,3.2,12c-0.6-4.1-1.3-8.2-1.9-12.4c0.9,3.8,1.9,7.6,2.8,11.4c0.1-3-0.4-6.1-1.3-9c0.7,3,1.4,5.9,2.1,8.9
		c-0.4-3.9-0.8-7.8-1.2-11.8c0.6,3.7,1.5,7.3,2.7,10.9c-0.3-4.7-0.7-9.3-1-14c0.7,3.5,1.3,7,2,10.5c0.3-4.1,0.2-8.2-0.4-12.2
		c0.1,3.4,0.9,6.8,2.1,10c-0.7-3.9-1.4-7.7-2.1-11.6c0.5,2.9,1.4,5.7,2.7,8.3c-0.4-3.8-0.9-7.5-1.3-11.3c0.2,3.2,1,6.4,2.3,9.3
		c-0.6-4.9-1.1-9.8-1.7-14.7c0.2,4.1,0.9,8.2,2.1,12.1c0.4-4.8,0.3-9.7-0.4-14.5c-0.1,2.9,0.1,5.8,0.7,8.6
		c-0.1-4.9-0.2-9.7-0.3-14.6c0.3,2.3,0.7,4.6,1,6.9c0-5,0.1-10,0.1-14.9c0.2,2.5,0.5,5,0.7,7.5c0.3-3.4,0.1-6.9-0.6-10.2
		c-0.2,1.5-0.5,3.1-0.7,4.6c-0.3-2.3-0.6-4.7-1-7c-0.1,1.7-0.2,3.4-0.3,5c0-1.6,0.1-3.1,0.1-4.7c0.7,1.9,1.5,3.7,2.2,5.6
		c0.2-1.8,0.1-3.6-0.2-5.3c0.2,1.6,0.4,3.1,0.6,4.7c0-1.8-0.2-3.6-0.6-5.4c0.1,1.2,0.1,2.5,0.2,3.7c-1.1-1.8-2.2-3.5-3.3-5.3
		c-0.6,0.1-1.2,0.2-1.8,0.3c-0.4,1.2-0.8,2.5-1.2,3.7c-0.4-1.5-0.9-3.1-1.3-4.6c-1.2-0.1-2.4-0.3-3.7-0.4"/>
	<path fill="none" stroke="#000000" stroke-miterlimit="10" d="M91,213c0,0.7,0,1.5,0.1,2.2c0.7-1.3,1.2-2.7,1.6-4.2
		c-0.3,1.8-0.4,3.7-0.4,5.6c0.5-1.6,0.9-3.1,1.4-4.7c-0.5,1.9-0.7,3.8-0.6,5.7c0.3-1.4,0.7-2.8,1-4.1c-0.1,1.1-0.3,2.2-0.4,3.2
		c0.5-0.7,0.8-1.5,1.1-2.4c0,1.5,0,3,0,4.6c0-0.9,0.1-1.8,0.4-2.7c0,0.4,0,0.8,0,1.1"/>
	<path fill="none" stroke="#000000" stroke-miterlimit="10" d="M99.3,213.3c-0.8,0.6-1.3,1.6-1.2,2.6c0.6-1.3,1.3-2.6,1.9-4
		c-0.3,2.1-0.7,4.2-1,6.3c0.6-1.4,1.2-2.9,1.8-4.3c-1,2.4-1.5,5.1-1.3,7.7c1.6-2.1,2.7-4.6,3.1-7.3c-0.8,2.5-1.2,5.2-1.3,7.8
		c0.6-2.4,1-5,1-7.5c-0.2,2.6-0.1,5.2,0.3,7.8c-0.1-2.6,0-5.1,0.3-7.7c0,3,0.1,6,0.1,9c0.2-3.3,0.3-6.7,0.5-10
		c-0.2,3.1,0.1,6.2,0.9,9.2c0.1-2.9,0.3-5.9,0.4-8.8c0.2,3.3,0.6,6.5,1.4,9.7c0-3.6,0.1-7.3,0.1-10.9c-0.1,3.5,0.4,7,1.6,10.2
		c0-3.1,0.1-6.2,0.1-9.2c-0.3,3,0.1,6.1,1,9c0-3.6,0-7.1,0-10.7c-0.6,3.6,0.1,7.3,2,10.4c-0.3-2.9-0.7-5.9-1-8.8
		c0.1,2.7,0.6,5.4,1.5,7.9c-0.3-2.7-0.6-5.5-0.9-8.2c0.5,3.1,1.3,6.1,2.3,9.1c0-2.3-0.2-4.7-0.6-7c0.3,2.8,0.8,5.6,1.7,8.3
		c-0.1-3-0.2-6-0.3-9c0.4,3,1.3,5.9,2.7,8.6c-0.4-2.8-0.7-5.5-1.1-8.3c0.2,2.6,1,5.2,2.3,7.4c-0.6-2.4-1.2-4.9-1.7-7.3
		c-0.1,3.5,1,7.1,3,10c-1.2-3.1-1.7-6.4-1.6-9.7c0.1,3.1,0.8,6.2,2,9c-0.9-2.8-1.3-5.6-1.3-8.5c-0.1,3.1,0.7,6.2,2.4,8.8
		c-0.5-2.6-0.9-5.3-1.4-7.9c-0.1,3.1,0.8,6.3,2.3,9c-0.3-3.2-0.7-6.4-1-9.6c0,2.9,0.7,5.9,2.1,8.5c-0.1-2.3-0.6-4.6-1.3-6.9
		c0.4,2.5,1.2,5,2.3,7.3c-1.1-2.8-1.9-5.8-2.3-8.8c0.5,3.4,1.8,6.7,3.9,9.5c-1-2.6-1.7-5.2-2.2-7.9c0.6,2.7,1.4,5.4,2.4,8
		c-1.4-2.8-2.1-6-2-9.1c0.6,3.8,2.1,7.4,4.2,10.6c-0.8-2.8-1.6-5.5-2.4-8.3c0.8,2.1,1.7,4.2,2.5,6.2c-1-2.5-1.5-5.2-1.4-7.9
		c0,3.1,1.2,6.3,3.4,8.5c-0.5-2.7-1.5-5.2-2.9-7.5c0.9,1.8,1.8,3.5,2.6,5.3c-1-1.9-1.7-3.9-1.8-6.1c0.3,2.7,1.4,5.3,3.1,7.3
		c-0.7-2.1-1.1-4.4-1.1-6.7c0.2,2.5,1.2,5,2.8,7c-0.4-2.1-0.7-4.2-1.1-6.4c-0.3,2.3,0.5,4.8,2.2,6.4c-0.4-1.8-0.8-3.5-1.3-5.3
		c-0.1,2.2,1,4.4,2.7,5.8c-0.2-1.7-0.5-3.3-1.1-4.9c0.3,1.6,1.2,3.2,2.5,4.3c-0.6-1.1-0.9-2.3-1.1-3.6c0.1,1.7,0.6,3.4,1.4,4.9
		c-0.2-1.6-0.5-3.3-0.7-4.9c0.2,1.8,1,3.6,2.2,5c-0.2-1.8-0.4-3.7-0.6-5.5c0.7,1.9,1.7,3.7,2.9,5.3c-0.5-1.5-1-3-1.4-4.5
		c0.4,1.7,1.1,3.3,1.9,4.8c0.2-1.4,0-2.9-0.5-4.2c0.1,2.1,1.4,4.1,3.2,5.1c-0.3-1.6-0.6-3.1-0.9-4.7c0.6,1.7,1.2,3.4,1.8,5.2
		c0-1.6,0.1-3.1,0.1-4.7c0.8,1.3,1.3,2.8,1.6,4.3c-0.1-1.6,0-3.2,0.5-4.8c0.5,1.6,1,3.3,1.6,4.9c0.1-0.9,0.3-1.7,0.4-2.6
		c0,1.3,0.5,2.6,1.3,3.5c0.5,0.5,0.2,1.5-0.4,1.7"/>
	<path fill="none" stroke="#000000" stroke-miterlimit="10" d="M99.1,135.5c1.1,0.8,1.5,2.3,1.7,3.7c0.9,5.7,0.9,11.5,0.2,17.2"/>
	<path fill="none" stroke="#000000" stroke-miterlimit="10" d="M211.8,174.7c-0.1,3.9,0.6,7.8,2,11.4"/>
	<path fill="none" stroke="#000000" stroke-width="0.25" stroke-miterlimit="10" d="M65.9,220.5c-1,2,0.7,4.3,2.4,5.8
		c3.8,3.5,8,6.5,12.5,8.9c1.4,0.7,3.3,1.3,4.3,0.1c1.4,4.5,7.8,6.5,11.5,3.6c2.2,3.4,7.8,3.9,10.7,0.9c0.8,2.1,3.6,2.5,5.8,2.4
		c4.3-0.2,8.6-0.9,12.8-1.6c2.1-0.4,4.5-0.8,5.8-2.6"/>
	<path fill="none" stroke="#000000" stroke-width="0.25" stroke-miterlimit="10" d="M97.6,232c-0.1,2.5-0.5,4.9-1.2,7.3"/>
	<path fill="none" stroke="#000000" stroke-width="0.25" stroke-miterlimit="10" d="M85,234.7c0.3-2.2,1-4.4,2-6.3"/>
	<path fill="none" stroke="#000000" stroke-width="0.25" stroke-miterlimit="10" d="M78.5,233c-0.5-2.6-0.1-5.4,1.1-7.7"/>
	<path fill="none" stroke="#000000" stroke-width="0.25" stroke-miterlimit="10" d="M71.7,228.3c-0.1-2.5,0.3-5,1.1-7.3"/>
	<path fill="none" stroke="#000000" stroke-width="0.25" stroke-miterlimit="10" d="M109.7,231.4c0.2,2.9,0.2,5.8-0.2,8.7"/>
	<path fill="none" stroke="#000000" stroke-width="0.25" stroke-miterlimit="10" d="M118,233c0.4,2.1,0,4.4-0.9,6.3"/>
	<path fill="none" stroke="#000000" stroke-width="0.25" stroke-miterlimit="10" d="M126.5,233c-0.1,2.1-0.3,4.2-0.4,6.4"/>
	<path fill="none" stroke="#000000" stroke-width="0.25" stroke-miterlimit="10" d="M133.7,232.7c-0.3,1.3-0.7,2.7-1,4"/>
</g>
</svg>
